<?xml version="1.0" encoding="UTF-8" standalone="no"?>
<!-- Created with Inkscape (http://www.inkscape.org/) -->
<svg
   xmlns:dc="http://purl.org/dc/elements/1.1/"
   xmlns:cc="http://creativecommons.org/ns#"
   xmlns:rdf="http://www.w3.org/1999/02/22-rdf-syntax-ns#"
   xmlns:svg="http://www.w3.org/2000/svg"
   xmlns="http://www.w3.org/2000/svg"
   xmlns:sodipodi="http://sodipodi.sourceforge.net/DTD/sodipodi-0.dtd"
   xmlns:inkscape="http://www.inkscape.org/namespaces/inkscape"
   version="1.1"
   width="640"
   height="480"
   id="svg5177"
   sodipodi:version="0.32"
   inkscape:version="0.45+devel"
   sodipodi:docname="hamakai.svg"
   inkscape:output_extension="org.inkscape.output.svg.inkscape">
  <metadata
     id="metadata5237">
    <rdf:RDF>
      <cc:Work
         rdf:about="">
        <dc:format>image/svg+xml</dc:format>
        <dc:type
           rdf:resource="http://purl.org/dc/dcmitype/StillImage" />
      </cc:Work>
    </rdf:RDF>
  </metadata>
  <sodipodi:namedview
     inkscape:window-height="701"
     inkscape:window-width="640"
     inkscape:pageshadow="2"
     inkscape:pageopacity="0.0"
     guidetolerance="10.0"
     gridtolerance="10.0"
     objecttolerance="10.0"
     borderopacity="1.0"
     bordercolor="#666666"
     pagecolor="#ffffff"
     id="base"
     showgrid="false"
     inkscape:zoom="0.77472527"
     inkscape:cx="312.19247"
     inkscape:cy="240"
     inkscape:window-x="84"
     inkscape:window-y="80"
     inkscape:current-layer="svg5177" />
  <defs
     id="defs5179">
    <inkscape:perspective
       sodipodi:type="inkscape:persp3d"
       inkscape:vp_x="-50 : 600 : 1"
       inkscape:vp_y="0 : 1000 : 0"
       inkscape:vp_z="700 : 600 : 1"
       inkscape:persp3d-origin="300 : 400 : 1"
       id="perspective5239" />
  </defs>
  <g
     id="layer1"
     transform="translate(6.4539007,-184.58156)">
    <path
       d="M 383.91218,200.91813 C 383.02445,203.8771 383.32041,213.34566 384.79982,222.22237 C 386.57519,234.05807 386.27931,239.97595 383.02445,246.48559 L 378.882,255.06643 L 372.37237,248.85273 C 368.82163,245.59787 360.53667,239.97595 354.02703,236.7211 C 347.81333,233.4663 336.5694,224.8854 329.46799,217.78399 C 315.56104,203.8771 306.38838,200.62226 309.64316,210.68257 C 310.82676,213.93743 309.64316,219.26348 306.98015,223.11009 C 304.31712,226.66077 302.24587,232.87453 302.24587,236.7211 C 302.24587,243.23073 301.35822,243.8225 292.77731,242.04719 C 279.4622,239.38418 270.28953,232.57865 263.18811,220.74295 C 256.38259,209.20315 248.39352,208.31543 247.5058,218.96758 C 247.20992,222.8142 245.13866,227.25254 242.77152,228.73202 C 235.67011,233.76219 216.73301,229.61968 208.44805,221.33472 C 204.30554,217.19222 199.27538,213.64154 197.20412,213.64154 C 193.06163,213.64154 189.21506,229.02791 191.58219,235.53756 C 192.46986,237.90468 191.58219,245.302 189.80683,252.10752 C 185.66432,267.198 190.10272,274.5953 195.13287,261.87196 C 197.20412,257.43357 198.97949,250.33215 199.57126,246.18964 C 201.05075,237.01704 207.26445,235.53756 219.10015,241.45536 C 230.34407,247.37324 238.33314,247.37324 243.06742,241.75132 C 248.09757,235.83344 255.79082,236.12933 262.00452,242.93486 C 264.66755,245.89377 272.36078,249.14861 278.57449,250.33215 C 288.63486,251.81164 290.41017,253.29106 290.41017,259.50482 C 290.41017,263.35145 291.59377,267.4939 293.36914,268.3816 C 298.39931,271.34051 316.44871,255.06643 319.99944,244.41433 C 323.846,233.17042 325.0296,232.57865 333.31456,238.49645 C 347.2215,247.96501 367.93397,258.02534 373.55591,258.02534 C 377.69841,258.02534 379.1779,259.50482 378.29018,262.16785 C 377.40253,264.53499 378.58613,268.08573 380.65731,269.86104 C 384.20805,272.81999 385.39159,271.04464 388.35056,259.80071 C 390.12587,252.40341 391.90124,246.18964 392.19713,246.18964 C 392.49301,246.18964 398.70677,249.14861 405.80818,252.40341 C 412.9096,255.95414 422.08227,258.61717 425.63295,258.61717 C 429.47956,258.61717 433.32619,259.80071 434.21384,261.28019 C 437.76458,267.198 448.12079,263.35145 459.06883,252.40341 C 465.57841,245.89377 470.90452,239.38418 470.90452,237.60881 C 470.90452,234.6499 480.37307,234.94579 488.65803,238.20058 C 497.23893,241.75132 529.49115,249.14861 535.70491,249.14861 C 540.73507,249.14861 541.91867,250.92392 541.91867,258.61717 C 541.91867,268.08573 541.91867,268.08573 547.54061,262.46373 C 551.38722,258.32128 553.45843,250.62804 554.64201,237.90468 C 555.82555,222.51826 555.23378,218.96758 551.09129,216.60045 C 544.28581,213.04971 532.45012,220.74295 534.81725,226.95665 C 536.00079,229.32379 537.77616,230.50739 539.25559,229.61968 C 540.73507,228.73202 541.91867,229.32379 541.91867,230.80328 C 541.91867,235.53756 534.52131,237.01704 521.50207,235.24167 C 508.1869,233.4663 506.11565,230.80328 515.58421,226.66077 C 520.31848,224.58951 517.65546,223.99774 504.63622,223.99774 C 488.65803,224.29363 487.17854,223.70186 476.82233,212.75383 C 464.39487,200.03049 462.02774,201.21403 461.14002,219.55935 C 460.84414,225.77311 459.95648,229.61968 458.77288,227.84437 C 457.29346,225.47723 454.63043,226.66077 450.48792,231.69093 C 447.23314,235.53756 444.57006,239.68005 444.27417,240.86359 C 444.27417,242.04719 442.20292,244.71022 439.83578,247.07736 C 435.39744,251.81164 425.33707,249.4445 409.35892,240.86359 C 400.48214,235.83344 405.21641,229.32379 419.71513,226.66077 C 428.00009,225.18134 429.47956,223.70186 428.88779,218.37581 C 427.70421,210.68257 420.01102,211.2744 408.17532,219.85525 C 397.52323,227.25254 396.9314,226.95665 396.9314,216.30457 C 396.9314,200.32636 387.46286,189.37833 383.91218,200.91813 z"
       id="path5067" />
    <path
       d="M 118.79268,221.33472 C 118.79268,225.77311 109.62001,238.20058 93.345931,255.36232 C 89.499311,259.50482 86.244511,263.94322 86.244511,265.12676 C 86.244511,266.31036 82.693831,270.45287 78.255441,274.29942 C 71.449901,280.51318 70.562201,281.99267 74.408811,284.35981 C 77.367721,286.431 80.326691,285.83923 83.581491,282.88032 C 85.948631,280.80907 90.091131,278.73781 92.754161,278.73781 C 95.121301,278.73781 107.54875,271.93228 120.27211,263.64732 C 132.69962,255.36232 143.94349,249.74038 145.12709,250.92392 C 148.9737,256.54591 166.13545,263.94322 174.71628,263.94322 C 187.73558,263.94322 186.55198,256.8418 172.94097,252.69929 C 166.72722,250.62804 156.66689,244.71022 150.45313,239.38418 C 135.06676,226.069 122.63925,216.60045 120.56805,216.60045 C 119.68034,216.60045 118.79268,218.67171 118.79268,221.33472 z M 130.62837,239.38418 C 130.62837,243.8225 126.18997,247.96501 114.65017,254.47466 C 99.263811,263.64732 98.080211,260.68842 111.98715,247.96501 C 122.63925,238.20058 130.62837,234.35396 130.62837,239.38418 z"
       id="path5083" />
    <text
       x="100"
       y="353.50354"
       id="text5223"
       xml:space="preserve"
       style="font-size:48px;font-style:normal;font-weight:normal;fill:#000000;fill-opacity:1;stroke:none;stroke-width:1px;stroke-linecap:butt;stroke-linejoin:miter;stroke-opacity:1;font-family:Gentium">       <tspan
   x="100"
   y="353.5"
   id="tspan5233">ἅμα καὶ</tspan>       <tspan
   x="100"
   y="410"
   id="tspan5225">and at the same time</tspan></text>
  </g>
</svg>
